<svg xmlns="http://www.w3.org/2000/svg" xmlns:xlink="http://www.w3.org/1999/xlink" width="34.416" height="34.419" viewBox="0 0 34.416 34.419">
  <defs>
    <clipPath id="clip-path">
      <rect id="Rectangle_4923" data-name="Rectangle 4923" width="34.416" height="34.419" transform="translate(-5 -5)" fill="none"/>
    </clipPath>
  </defs>
  <g id="Group_38774" data-name="Group 38774" transform="translate(-15.015 -200.015)">
    <g id="Path_29524" data-name="Path 29524" transform="translate(16.015 201.015)" fill="#fff">
      <path d="M 16 31.5 C 11.85980033874512 31.5 7.967410087585449 29.88772010803223 5.039840221405029 26.96015930175781 C 2.112279891967773 24.03259086608887 0.5 20.14019966125488 0.5 16 C 0.5 11.85980033874512 2.112279891967773 7.967410087585449 5.039840221405029 5.039840221405029 C 7.967410087585449 2.112279891967773 11.85980033874512 0.5 16 0.5 C 20.14019966125488 0.5 24.03259086608887 2.112279891967773 26.96015930175781 5.039840221405029 C 29.88772010803223 7.967410087585449 31.5 11.85980033874512 31.5 16 C 31.5 20.14019966125488 29.88772010803223 24.03259086608887 26.96015930175781 26.96015930175781 C 24.03259086608887 29.88772010803223 20.14019966125488 31.5 16 31.5 Z" stroke="none"/>
      <path d="M 16 1 C 11.99334907531738 1 8.226520538330078 2.560270309448242 5.393400192260742 5.393400192260742 C 2.560270309448242 8.226520538330078 1 11.99334907531738 1 16 C 1 20.00664901733398 2.560270309448242 23.77347946166992 5.393400192260742 26.60659980773926 C 8.226520538330078 29.43972969055176 11.99334907531738 31 16 31 C 20.00664901733398 31 23.77347946166992 29.43972969055176 26.60659980773926 26.60659980773926 C 29.43972969055176 23.77347946166992 31 20.00664901733398 31 16 C 31 11.99334907531738 29.43972969055176 8.226520538330078 26.60659980773926 5.393400192260742 C 23.77347946166992 2.560270309448242 20.00664901733398 1 16 1 M 16 0 C 24.8365592956543 0 32 7.163440704345703 32 16 C 32 24.8365592956543 24.8365592956543 32 16 32 C 7.163440704345703 32 0 24.8365592956543 0 16 C 0 7.163440704345703 7.163440704345703 0 16 0 Z" stroke="none" fill="#b8b7b7"/>
    </g>
    <g id="Group_38744" data-name="Group 38744" transform="translate(19.877 204.689)">
      <g id="Group_38743" data-name="Group 38743" transform="translate(0.138 0.327)" clip-path="url(#clip-path)">
        <path id="Path_29511" data-name="Path 29511" d="M8.722,12.208" fill="#293897"/>
        <path id="Path_29512" data-name="Path 29512" d="M136.31,130.038q0-2.789,0-5.578a1.46,1.46,0,0,1,2.278-1.412q5.6,2.793,11.2,5.592a1.486,1.486,0,0,1,0,2.8q-5.618,2.81-11.238,5.615a1.456,1.456,0,0,1-2.24-1.4c-.005-1.873,0-3.745,0-5.618" transform="translate(-130.465 -117.831)" fill="#293897" stroke="#293897" stroke-width="1"/>
      </g>
    </g>
  </g>
</svg>
