<svg xmlns="http://www.w3.org/2000/svg" xmlns:xlink="http://www.w3.org/1999/xlink" width="32" height="32" viewBox="0 0 32 32">
  <defs>
    <clipPath id="clip-path">
      <path id="Path_29517" data-name="Path 29517" d="M16,0A16,16,0,1,1,0,16,16,16,0,0,1,16,0Z" transform="translate(362 1115)" fill="#fff" stroke="#b8b7b7" stroke-width="1"/>
    </clipPath>
  </defs>
  <g id="Group_38992" data-name="Group 38992" transform="translate(-16 -586)">
    <g id="Group_38774" data-name="Group 38774" transform="translate(-0.015 384.985)">
      <g id="Ellipse_5" data-name="Ellipse 5" transform="translate(16.015 201.015)" fill="#fff" stroke="#b8b7b7" stroke-width="1">
        <circle cx="16" cy="16" r="16" stroke="none"/>
        <circle cx="16" cy="16" r="15.5" fill="none"/>
      </g>
    </g>
    <g id="Group_38780" data-name="Group 38780" transform="translate(-346 -529)">
      <g id="Mask_Group_5" data-name="Mask Group 5" clip-path="url(#clip-path)">
        <g id="help_outline_black_24dp" transform="translate(362 1115)">
          <path id="Path_29526" data-name="Path 29526" d="M0,0H32V32H0Z" fill="none"/>
          <path id="Path_29527" data-name="Path 29527" d="M15.2,26.139h3.023V23.116H15.2ZM16.713,8a6.045,6.045,0,0,0-6.046,6.046H13.69a3.023,3.023,0,1,1,6.046,0c0,3.023-4.535,2.645-4.535,7.558h3.023c0-3.4,4.535-3.779,4.535-7.558A6.045,6.045,0,0,0,16.713,8Z" transform="translate(-0.713 -1.07)" fill="#293897"/>
        </g>
      </g>
    </g>
  </g>
</svg>
