<svg xmlns="http://www.w3.org/2000/svg" xmlns:xlink="http://www.w3.org/1999/xlink" width="32" height="32" viewBox="0 0 32 32">
  <defs>
    <clipPath id="clip-path">
      <rect id="Rectangle_4942" data-name="Rectangle 4942" width="17.718" height="21.392" fill="#293897"/>
    </clipPath>
  </defs>
  <g id="Group_38784" data-name="Group 38784" transform="translate(-19 -408)">
    <g id="Ellipse_11" data-name="Ellipse 11" transform="translate(19 408)" fill="#fff" stroke="#d9d9d9" stroke-width="1">
      <circle cx="16" cy="16" r="16" stroke="none"/>
      <circle cx="16" cy="16" r="15.5" fill="none"/>
    </g>
    <g id="Path_29525" data-name="Path 29525" transform="translate(19 408)" fill="#fff">
      <path d="M 16 31.5 C 11.85980033874512 31.5 7.967410087585449 29.88772010803223 5.039840221405029 26.96015930175781 C 2.112279891967773 24.03259086608887 0.5 20.14019966125488 0.5 16 C 0.5 11.85980033874512 2.112279891967773 7.967410087585449 5.039840221405029 5.039840221405029 C 7.967410087585449 2.112279891967773 11.85980033874512 0.5 16 0.5 C 20.14019966125488 0.5 24.03259086608887 2.112279891967773 26.96015930175781 5.039840221405029 C 29.88772010803223 7.967410087585449 31.5 11.85980033874512 31.5 16 C 31.5 20.14019966125488 29.88772010803223 24.03259086608887 26.96015930175781 26.96015930175781 C 24.03259086608887 29.88772010803223 20.14019966125488 31.5 16 31.5 Z" stroke="none"/>
      <path d="M 16 1 C 11.99334907531738 1 8.226520538330078 2.560270309448242 5.393400192260742 5.393400192260742 C 2.560270309448242 8.226520538330078 1 11.99334907531738 1 16 C 1 20.00664901733398 2.560270309448242 23.77347946166992 5.393400192260742 26.60659980773926 C 8.226520538330078 29.43972969055176 11.99334907531738 31 16 31 C 20.00664901733398 31 23.77347946166992 29.43972969055176 26.60659980773926 26.60659980773926 C 29.43972969055176 23.77347946166992 31 20.00664901733398 31 16 C 31 11.99334907531738 29.43972969055176 8.226520538330078 26.60659980773926 5.393400192260742 C 23.77347946166992 2.560270309448242 20.00664901733398 1 16 1 M 16 0 C 24.8365592956543 0 32 7.163440704345703 32 16 C 32 24.8365592956543 24.8365592956543 32 16 32 C 7.163440704345703 32 0 24.8365592956543 0 16 C 0 7.163440704345703 7.163440704345703 0 16 0 Z" stroke="none" fill="#b8b7b7"/>
    </g>
    <g id="Group_38783" data-name="Group 38783" transform="translate(26 414)">
      <g id="Group_38782" data-name="Group 38782" clip-path="url(#clip-path)">
        <path id="Path_29528" data-name="Path 29528" d="M21.557,0c.4.07.813.11,1.206.214a7.937,7.937,0,0,1,6.087,6.13A8.116,8.116,0,0,1,23.8,15.853a7.445,7.445,0,0,1-3.934.445,7.98,7.98,0,0,1-6.668-5.578A8.172,8.172,0,0,1,20.166.037.817.817,0,0,0,20.3,0Zm-.484,3.84c-.415,0-.6.105-.728.37-.282.566-.567,1.13-.835,1.7a.37.37,0,0,1-.333.225q-.929.126-1.857.261a.616.616,0,0,0-.555.439.64.64,0,0,0,.2.68c.463.442.916.9,1.379,1.338a.3.3,0,0,1,.1.311c-.115.628-.211,1.26-.327,1.889a.626.626,0,0,0,.245.681.641.641,0,0,0,.726.006c.545-.292,1.1-.573,1.639-.868a.369.369,0,0,1,.4,0c.561.306,1.129.6,1.695.9a.625.625,0,0,0,.924-.668c-.114-.65-.228-1.3-.329-1.952a.358.358,0,0,1,.088-.268q.668-.675,1.357-1.33a.645.645,0,0,0-.4-1.163c-.606-.08-1.211-.173-1.816-.256a.341.341,0,0,1-.292-.218c-.271-.571-.557-1.134-.834-1.7a.591.591,0,0,0-.446-.371" transform="translate(-12.056)" fill="#293897"/>
        <path id="Path_29529" data-name="Path 29529" d="M1.844,258.816a9.532,9.532,0,0,0,2.5,2,9.343,9.343,0,0,0,3,1.04c-.031.08-.052.142-.079.2-.477,1.073-.956,2.144-1.429,3.218-.118.268-.283.484-.594.473a.715.715,0,0,1-.666-.483c-.345-.826-.7-1.645-1.065-2.484l-1.7.578c-.315.107-.631.214-.948.317a.616.616,0,0,1-.7-.168.614.614,0,0,1-.093-.7c.585-1.321,1.173-2.64,1.776-3.995" transform="translate(0 -244.37)" fill="#293897"/>
        <path id="Path_29530" data-name="Path 29530" d="M190.105,262.893c-.356.825-.707,1.641-1.062,2.455a.978.978,0,0,1-.18.3.616.616,0,0,1-1.054-.2c-.359-.8-.71-1.6-1.064-2.4-.154-.348-.31-.7-.478-1.074a9.478,9.478,0,0,0,5.507-3.045c.034.073.06.125.083.178.559,1.256,1.124,2.51,1.668,3.773a.891.891,0,0,1,.035.558.6.6,0,0,1-.822.344c-.849-.285-1.7-.574-2.544-.862-.019-.007-.04-.011-.087-.024" transform="translate(-175.87 -244.474)" fill="#293897"/>
        <path id="Path_29531" data-name="Path 29531" d="M122.337,104.634c.174.35.34.653.476.968a.793.793,0,0,0,.721.507c.33.032.658.09,1.023.141-.055.063-.089.109-.13.149-.238.234-.478.466-.717.7a.658.658,0,0,0-.191.629c.068.373.13.748.2,1.157-.345-.182-.663-.337-.968-.513a.758.758,0,0,0-.824,0c-.3.177-.623.331-.97.514.068-.4.122-.77.194-1.134a.711.711,0,0,0-.211-.682c-.262-.267-.512-.545-.77-.821.3-.044.624-.108.951-.136a.819.819,0,0,0,.752-.529c.132-.309.295-.605.464-.949" transform="translate(-113.463 -98.794)" fill="#293897"/>
      </g>
    </g>
  </g>
</svg>
