<svg id="Group_38796" data-name="Group 38796" xmlns="http://www.w3.org/2000/svg" xmlns:xlink="http://www.w3.org/1999/xlink" width="32" height="28.981" viewBox="0 0 32 28.981">
  <defs>
    <clipPath id="clip-path">
      <rect id="Rectangle_4945" data-name="Rectangle 4945" width="32" height="28.981" fill="none"/>
    </clipPath>
  </defs>
  <g id="Group_38795" data-name="Group 38795" clip-path="url(#clip-path)">
    <path id="Path_29549" data-name="Path 29549" d="M16,28.968q-2.23,0-4.459.009-3.181,0-6.363,0a4.946,4.946,0,0,1-5.1-4.09c-.013-.057.005-.129-.072-.157V23.294c.115-.061.082-.184.1-.276a5.229,5.229,0,0,1,.6-1.533Q6.167,12.044,11.638,2.6A4.887,4.887,0,0,1,16,0q0,3,0,5.991a.2.2,0,0,0-.014.044,2.916,2.916,0,0,0-2.813,2.1,3.937,3.937,0,0,0-.026,1.852,33.014,33.014,0,0,0,1.981,6.345.869.869,0,0,0,.87.584l0,.018q0,1.054,0,2.109c-.112.018-.224.041-.337.054a2.939,2.939,0,0,0-1.5,5.213A3.367,3.367,0,0,0,16,24.985q0,1.991,0,3.983" fill="#fb9300"/>
    <path id="Path_29550" data-name="Path 29550" d="M117.709,28.968q0-1.991,0-3.983a.129.129,0,0,0,0-.032l.2.006a.125.125,0,0,0,.136-.026,2.939,2.939,0,0,0,0-5.841.128.128,0,0,0-.136-.026l-.2.007a.129.129,0,0,0,0-.032q0-1.054,0-2.109a.95.95,0,0,0,.916-.67,37,37,0,0,0,1.871-5.846,5.187,5.187,0,0,0,.12-1.979,2.963,2.963,0,0,0-2.9-2.447q0-3,0-5.991a4.687,4.687,0,0,1,4.185,2.329c1.095,1.777,2.11,3.6,3.157,5.41q3.962,6.835,7.92,13.672a4.939,4.939,0,0,1-.932,6.324,4.662,4.662,0,0,1-3.179,1.24c-3.645.01-7.289,0-10.934,0-.073,0-.145-.007-.218-.011" transform="translate(-101.713)" fill="#f67d0c"/>
    <path id="Path_29551" data-name="Path 29551" d="M117.668,44.091a2.964,2.964,0,0,1,2.9,2.447,5.188,5.188,0,0,1-.12,1.979,36.994,36.994,0,0,1-1.871,5.846.949.949,0,0,1-.916.67l0-.018q0-3.367,0-6.734,0-2.073-.009-4.146a.2.2,0,0,1,.014-.044" transform="translate(-101.668 -38.1)" fill="#131811"/>
    <path id="Path_29552" data-name="Path 29552" d="M98.976,44.412q0,2.073.009,4.146,0,3.367,0,6.733a.869.869,0,0,1-.87-.584,33,33,0,0,1-1.981-6.345,3.935,3.935,0,0,1,.026-1.852,2.916,2.916,0,0,1,2.813-2.1" transform="translate(-82.991 -38.378)" fill="#2f2f2a"/>
    <path id="Path_29553" data-name="Path 29553" d="M99.013,146.085a3.367,3.367,0,0,1-1.841-.677,2.939,2.939,0,0,1,1.5-5.213c.113-.013.225-.036.337-.054a.123.123,0,0,1,0,.032q0,2.94,0,5.88a.129.129,0,0,1,0,.032" transform="translate(-83.017 -121.1)" fill="#302f2a"/>
    <path id="Path_29554" data-name="Path 29554" d="M117.711,146.215v-5.88l.2-.007a.121.121,0,0,0,.136.026,2.939,2.939,0,0,1,0,5.841.122.122,0,0,0-.136.026l-.2-.006" transform="translate(-101.718 -121.262)" fill="#131811"/>
    <path id="Path_29555" data-name="Path 29555" d="M119.3,140.3a.121.121,0,0,1-.136-.026.128.128,0,0,1,.136.026" transform="translate(-102.971 -121.206)" fill="#302f2a"/>
    <path id="Path_29556" data-name="Path 29556" d="M119.159,183.477a.122.122,0,0,1,.136-.026.125.125,0,0,1-.136.026" transform="translate(-102.969 -158.517)" fill="#302f2a"/>
  </g>
</svg>
