<svg id="Group_38794" data-name="Group 38794" xmlns="http://www.w3.org/2000/svg" xmlns:xlink="http://www.w3.org/1999/xlink" width="32" height="32" viewBox="0 0 32 32">
  <defs>
    <clipPath id="clip-path">
      <rect id="Rectangle_4944" data-name="Rectangle 4944" width="32" height="32" fill="none"/>
    </clipPath>
  </defs>
  <g id="Group_38793" data-name="Group 38793" clip-path="url(#clip-path)">
    <path id="Path_29535" data-name="Path 29535" d="M13.5,0h5a1.545,1.545,0,0,1,1.062,1.362c.089.919.213,1.836.318,2.754a.4.4,0,0,0,.272.375q.538.206,1.064.442a.344.344,0,0,0,.4-.05c.241-.2.485-.393.735-.578A22.831,22.831,0,0,1,24.317,2.83c0,.106.077.166.142.232.589.6,1.176,1.208,1.768,1.808a1.377,1.377,0,0,1,.093,2.1c-.569.7-1.117,1.424-1.68,2.132a.422.422,0,0,0-.059.488c.147.321.281.649.416.976a.407.407,0,0,0,.327.3c.619.07,1.238.134,1.858.2.1.238.219.47.3.716a.477.477,0,0,0,.481.352c.515.049,1.027.125,1.54.191q0,2.249,0,4.5A1.387,1.387,0,0,1,28.2,18.3q-1.375.173-2.754.32a.479.479,0,0,0-.451.316q-.194.493-.415.976a.422.422,0,0,0,.06.488c.556.7,1.1,1.414,1.659,2.108a1.43,1.43,0,0,1-.1,2.182q-1.342,1.353-2.7,2.693a1.762,1.762,0,0,1-.815.554,5.9,5.9,0,0,1-.711-.547.807.807,0,0,0-1.167-.148c-.546-.528-1.177-.95-1.767-1.423a.26.26,0,0,0-.292-.016q-.545.232-1.094.454a.4.4,0,0,0-.277.344c-.107.906-.231,1.81-.317,2.718a1.415,1.415,0,0,1-1.55,1.428l-3.056.009c-.113-.95-.231-1.9-.337-2.851a.439.439,0,0,0-.311-.415c-.322-.118-.641-.248-.95-.4a.445.445,0,0,0-.537.064c-.714.574-1.437,1.136-2.16,1.7a1.376,1.376,0,0,1-2.056-.12q-1.429-1.42-2.849-2.849a1.375,1.375,0,0,1-.122-2.055c.545-.7,1.085-1.4,1.643-2.084a.532.532,0,0,0,.1-.671A6.738,6.738,0,0,1,4.5,20.19a.416.416,0,0,0-.381-.309c-.744-.082-1.486-.195-2.232-.256C1.068,19.557.315,19.407,0,18.5v-5a1.626,1.626,0,0,1,1.583-1.084c.839-.054,1.673-.2,2.51-.293a.435.435,0,0,0,.413-.313,7.38,7.38,0,0,1,.384-.921.5.5,0,0,0-.088-.616c-.569-.7-1.125-1.42-1.681-2.134a1.364,1.364,0,0,1,.118-2.008Q4.68,4.68,6.132,3.239A1.364,1.364,0,0,1,8.14,3.12c.731.569,1.463,1.137,2.184,1.718a.444.444,0,0,0,.537.065,10.25,10.25,0,0,1,.949-.4.436.436,0,0,0,.312-.414c.081-.755.195-1.507.256-2.263C12.445,1.02,12.626.3,13.5,0M11.373,22.376h0a7.443,7.443,0,0,0,2.943,1.336,3.358,3.358,0,0,0,1.2.148,4.141,4.141,0,0,0,.964,0,3.363,3.363,0,0,0,1.2-.149,7.9,7.9,0,0,0,6.106-8.991,7.557,7.557,0,0,0-2.426-4.509A7.239,7.239,0,0,0,18.379,8.49,6.475,6.475,0,0,0,16.9,8.175a7.6,7.6,0,0,0-6.315,2.11,7.6,7.6,0,0,0-2.314,7.24,7.5,7.5,0,0,0,3.044,4.8l.057.05" fill="#002e84"/>
    <path id="Path_29536" data-name="Path 29536" d="M372.219,203.215a1.553,1.553,0,0,1-1.48,1.079c-.859.065-1.713.2-2.57.3a.472.472,0,0,0-.47.368,3.119,3.119,0,0,1-.309.747.63.63,0,0,0,.109.829c.559.672,1.087,1.369,1.625,2.058a1.365,1.365,0,0,1-.107,1.963q-1.485,1.5-2.982,2.982a1.348,1.348,0,0,1-1.89.114,14.989,14.989,0,0,1-1.234-1,1.763,1.763,0,0,0,.815-.554q1.356-1.338,2.7-2.693a1.43,1.43,0,0,0,.1-2.182c-.563-.694-1.1-1.408-1.659-2.108a.422.422,0,0,1-.06-.488q.222-.482.415-.976a.479.479,0,0,1,.451-.317q1.378-.148,2.754-.32a1.387,1.387,0,0,0,1.3-1.484q0-2.249,0-4.5a10.485,10.485,0,0,1,1.391.159,1.433,1.433,0,0,1,1.108,1.021Z" transform="translate(-340.22 -184.715)" fill="#6678b9"/>
    <path id="Path_29537" data-name="Path 29537" d="M207.645,413.63a3.34,3.34,0,0,1-.514.215c-.324.078-.4.289-.43.588-.093.919-.2,1.837-.324,2.753a1.46,1.46,0,0,1-1.044,1.2h-5a1.433,1.433,0,0,1-1.039-1.241l3.056-.009a1.415,1.415,0,0,0,1.55-1.428c.086-.908.21-1.812.317-2.718a.4.4,0,0,1,.277-.344q.549-.222,1.094-.454a.26.26,0,0,1,.292.016c.59.473,1.221.9,1.767,1.423" transform="translate(-186.832 -386.385)" fill="#6678b9"/>
    <path id="Path_29538" data-name="Path 29538" d="M133,144.131a7.5,7.5,0,0,1-3.044-4.8,7.884,7.884,0,0,1,8.629-9.35,6.469,6.469,0,0,1,1.478.315c.1.211.309.3.465.451a7.86,7.86,0,0,1,2.522,5.312,7.7,7.7,0,0,1-1.536,5.187,7.2,7.2,0,0,1-2.2,2c0-1,0-2-.014-2.994a.241.241,0,0,1,.171-.254,4.213,4.213,0,0,0,2.4-4.449,4.164,4.164,0,0,0-1.952-2.977.333.333,0,0,0-.527.11,3.136,3.136,0,0,0-.037.339c0,.781-.01,1.562,0,2.342a.79.79,0,0,1-.284.655c-.372.333-.725.687-1.088,1.031-.281.266-.394.264-.679-.018-.318-.315-.62-.648-.954-.944a.968.968,0,0,1-.342-.822c.021-.78.012-1.561,0-2.342,0-.388-.252-.522-.58-.329-.081.047-.157.1-.233.157a4.209,4.209,0,0,0-.68,6.195l.043.047v0a4.457,4.457,0,0,0,1.52,1.116c0,.187-.011.374-.012.561q-.008,1.855-.014,3.71a5.587,5.587,0,0,1-.868.058,12.861,12.861,0,0,1-2.128-.251h0l-.057-.05" transform="translate(-121.68 -121.806)" fill="#fb9300"/>
    <path id="Path_29539" data-name="Path 29539" d="M281.883,148.748a7.2,7.2,0,0,0,2.2-2,7.7,7.7,0,0,0,1.536-5.187,7.86,7.86,0,0,0-2.522-5.312c-.156-.149-.369-.24-.465-.451a7.239,7.239,0,0,1,2.984,1.721,7.558,7.558,0,0,1,2.426,4.509,7.9,7.9,0,0,1-6.106,8.991c-.061-.04-.058-.1-.058-.166q0-1.052.01-2.1" transform="translate(-264.25 -127.306)" fill="#fabd73"/>
    <path id="Path_29540" data-name="Path 29540" d="M210.714,181.622q-.005,1.052-.01,2.1c0,.061,0,.125.058.166a3.362,3.362,0,0,1-1.2.15c-.006-1.09.042-2.182-.072-3.271a3.314,3.314,0,0,0-.046.558,1.326,1.326,0,0,1-.788,1.3c-.008-.529-.021-1.057-.022-1.585,0-.464.19-.615.648-.509.131.03.17.01.169-.118q0-.731,0-1.463c0-.142-.058-.218-.2-.206a4.887,4.887,0,0,1-1.771-.271,4.455,4.455,0,0,1-1.52-1.116,5.178,5.178,0,0,0,1.858.11,4.217,4.217,0,0,0,2.971-6.416.333.333,0,0,1,.527-.11,4.164,4.164,0,0,1,1.952,2.977,4.213,4.213,0,0,1-2.4,4.449.241.241,0,0,0-.171.255c.01,1,.011,2,.014,2.994" transform="translate(-193.08 -160.18)" fill="#657f8b"/>
    <path id="Path_29541" data-name="Path 29541" d="M388.917,43.915a1.364,1.364,0,0,1,1.493.34c1.012,1.007,2.024,2.013,3.026,3.028a1.351,1.351,0,0,1,.093,1.894c-.516.667-1.025,1.341-1.567,1.986-.263.313-.423.6-.179.983-.619-.066-1.239-.13-1.857-.2a.407.407,0,0,1-.327-.3c-.135-.327-.269-.654-.416-.976a.422.422,0,0,1,.059-.488c.563-.708,1.11-1.429,1.68-2.132a1.377,1.377,0,0,0-.093-2.1c-.592-.6-1.179-1.205-1.768-1.808-.065-.067-.141-.126-.142-.232" transform="translate(-364.6 -41.085)" fill="#6678b9"/>
    <path id="Path_29542" data-name="Path 29542" d="M247.923,331.181a1.326,1.326,0,0,0,.787-1.3,3.31,3.31,0,0,1,.046-.558c.114,1.088.066,2.18.072,3.271a4.141,4.141,0,0,1-.964,0q-.011-.652-.022-1.3l.081-.107" transform="translate(-232.346 -308.73)" fill="#394d56"/>
    <path id="Path_29543" data-name="Path 29543" d="M181.925,357.894a12.869,12.869,0,0,0,2.128.251,5.588,5.588,0,0,0,.868-.058.425.425,0,0,1,.021.058c-.065.359.064.731-.074,1.086a7.443,7.443,0,0,1-2.943-1.336" transform="translate(-170.55 -335.517)" fill="#f98c09"/>
    <path id="Path_29544" data-name="Path 29544" d="M229,361.945c.138-.354.008-.727.074-1.086a4.576,4.576,0,0,0,1.1-.069q.011.652.022,1.3a3.359,3.359,0,0,1-1.2-.148" transform="translate(-214.682 -338.232)" fill="#667f8a"/>
    <path id="Path_29545" data-name="Path 29545" d="M180.99,357.072l.057.05-.057-.05" transform="translate(-169.674 -334.747)" fill="#f98c09"/>
    <path id="Path_29546" data-name="Path 29546" d="M194.368,171.328a4.217,4.217,0,0,1-2.971,6.416,5.18,5.18,0,0,1-1.858-.11v0l-.043-.047a4.209,4.209,0,0,1,.68-6.195c.076-.055.152-.11.233-.157.329-.193.576-.059.58.329.008.781.017,1.562,0,2.342a.968.968,0,0,0,.342.822c.334.3.636.63.954.945.284.282.4.284.679.018.363-.344.716-.7,1.088-1.031a.791.791,0,0,0,.284-.655c-.013-.781-.006-1.561,0-2.342a3.139,3.139,0,0,1,.037-.339" transform="translate(-176.661 -160.451)" fill="#a0b0b8"/>
    <path id="Path_29547" data-name="Path 29547" d="M230.977,296.928a4.575,4.575,0,0,1-1.1.069.43.43,0,0,0-.021-.058q.007-1.855.014-3.71c0-.187.008-.374.012-.561a4.888,4.888,0,0,0,1.771.271c.145-.012.2.064.2.206q0,.731,0,1.463c0,.128-.038.148-.169.118-.458-.106-.648.046-.648.509,0,.528.014,1.057.022,1.585l-.081.107" transform="translate(-215.481 -274.37)" fill="#a0b0b6"/>
    <path id="Path_29548" data-name="Path 29548" d="M205.3,274.138l.043.047-.043-.047" transform="translate(-192.459 -256.998)" fill="#657f8b"/>
  </g>
</svg>
